<?xml version="1.0" encoding="UTF-8" standalone="no"?><svg xmlns="http://www.w3.org/2000/svg" xmlns:xlink="http://www.w3.org/1999/xlink" contentScriptType="application/ecmascript" contentStyleType="text/css" height="690px" preserveAspectRatio="none" style="width:1077px;height:690px;background:#FFFFFF;" version="1.1" viewBox="0 0 1077 690" width="1077px" zoomAndPan="magnify"><defs><filter height="300%" id="fzl2r2bah9isz" width="300%" x="-1" y="-1"><feGaussianBlur result="blurOut" stdDeviation="2.0"/><feColorMatrix in="blurOut" result="blurOut2" type="matrix" values="0 0 0 0 0 0 0 0 0 0 0 0 0 0 0 0 0 0 .4 0"/><feOffset dx="4.0" dy="4.0" in="blurOut2" result="blurOut3"/><feBlend in="SourceGraphic" in2="blurOut3" mode="normal"/></filter></defs><g><!--MD5=[29eb71d862c71182ff4cc73ea8442e36]
class DeviceMachineState--><rect codeLine="1" fill="#FEFECE" filter="url(#fzl2r2bah9isz)" height="99.2188" id="DeviceMachineState" style="stroke:#A80036;stroke-width:1.5;" width="154" x="307" y="562.5"/><ellipse cx="322" cy="578.5" fill="#EB937F" rx="11" ry="11" style="stroke:#A80036;stroke-width:1.0;"/><path d="M320.7969,579.375 L322.25,579.375 L322.25,579.4844 C322.25,579.8906 322.2813,580.0469 322.3594,580.2031 C322.5156,580.4531 322.7969,580.6094 323.0938,580.6094 C323.3438,580.6094 323.6094,580.4688 323.7656,580.25 C323.8906,580.0938 323.9219,579.9375 323.9219,579.4844 L323.9219,577.5625 C323.9219,577.4063 323.9219,577.3594 323.9063,577.2031 C323.8438,576.7344 323.5313,576.4219 323.0781,576.4219 C322.8281,576.4219 322.5625,576.5625 322.3906,576.7813 C322.2813,576.9531 322.25,577.1094 322.25,577.5625 L322.25,577.6875 L320.7969,577.6875 L320.7969,575.2813 L324.7813,575.2813 L324.7813,576.1406 C324.7813,576.5469 324.8125,576.7188 324.8906,576.875 C325.0625,577.125 325.3438,577.2813 325.625,577.2813 C325.8906,577.2813 326.1563,577.1406 326.3281,576.9219 C326.4375,576.75 326.4688,576.6094 326.4688,576.1406 L326.4688,573.5938 L318.8438,573.5938 C318.4063,573.5938 318.2813,573.6094 318.125,573.7031 C317.875,573.8594 317.7188,574.1563 317.7188,574.4375 C317.7188,574.7188 317.8594,574.9688 318.0781,575.1406 C318.2344,575.25 318.4219,575.2813 318.8438,575.2813 L319.0938,575.2813 L319.0938,581.7969 L318.8438,581.7969 C318.4375,581.7969 318.2813,581.8125 318.125,581.9219 C317.875,582.0938 317.7188,582.3594 317.7188,582.6563 C317.7188,582.9219 317.8594,583.1719 318.0781,583.3281 C318.2188,583.4531 318.4531,583.5 318.8438,583.5 L326.8438,583.5 L326.8438,580.9219 C326.8438,580.4844 326.8125,580.3438 326.7344,580.1875 C326.5625,579.9375 326.2813,579.7813 326,579.7813 C325.7344,579.7813 325.4688,579.8906 325.2969,580.1406 C325.1875,580.2969 325.1563,580.4375 325.1563,580.9219 L325.1563,581.7969 L320.7969,581.7969 L320.7969,579.375 Z " fill="#000000"/><text fill="#000000" font-family="sans-serif" font-size="12" lengthAdjust="spacing" textLength="122" x="336" y="582.6543">DeviceMachineState</text><line style="stroke:#A80036;stroke-width:1.5;" x1="308" x2="460" y1="594.5" y2="594.5"/><text fill="#000000" font-family="sans-serif" font-size="11" lengthAdjust="spacing" textLength="49" x="313" y="608.7104">Free= 0,</text><text fill="#000000" font-family="sans-serif" font-size="11" lengthAdjust="spacing" textLength="70" x="313" y="621.5151">Provisioning,</text><text fill="#000000" font-family="sans-serif" font-size="11" lengthAdjust="spacing" textLength="44" x="313" y="634.3198">Erasing,</text><text fill="#000000" font-family="sans-serif" font-size="11" lengthAdjust="spacing" textLength="48" x="313" y="647.1245">Running,</text><line style="stroke:#A80036;stroke-width:1.5;" x1="308" x2="460" y1="653.7188" y2="653.7188"/><!--MD5=[0bc9bea665de41390ef73a709003a9a7]
class DevicePowerState--><rect codeLine="7" fill="#FEFECE" filter="url(#fzl2r2bah9isz)" height="99.2188" id="DevicePowerState" style="stroke:#A80036;stroke-width:1.5;" width="142" x="496" y="562.5"/><ellipse cx="511" cy="578.5" fill="#EB937F" rx="11" ry="11" style="stroke:#A80036;stroke-width:1.0;"/><path d="M509.7969,579.375 L511.25,579.375 L511.25,579.4844 C511.25,579.8906 511.2813,580.0469 511.3594,580.2031 C511.5156,580.4531 511.7969,580.6094 512.0938,580.6094 C512.3438,580.6094 512.6094,580.4688 512.7656,580.25 C512.8906,580.0938 512.9219,579.9375 512.9219,579.4844 L512.9219,577.5625 C512.9219,577.4063 512.9219,577.3594 512.9063,577.2031 C512.8438,576.7344 512.5313,576.4219 512.0781,576.4219 C511.8281,576.4219 511.5625,576.5625 511.3906,576.7813 C511.2813,576.9531 511.25,577.1094 511.25,577.5625 L511.25,577.6875 L509.7969,577.6875 L509.7969,575.2813 L513.7813,575.2813 L513.7813,576.1406 C513.7813,576.5469 513.8125,576.7188 513.8906,576.875 C514.0625,577.125 514.3438,577.2813 514.625,577.2813 C514.8906,577.2813 515.1563,577.1406 515.3281,576.9219 C515.4375,576.75 515.4688,576.6094 515.4688,576.1406 L515.4688,573.5938 L507.8438,573.5938 C507.4063,573.5938 507.2813,573.6094 507.125,573.7031 C506.875,573.8594 506.7188,574.1563 506.7188,574.4375 C506.7188,574.7188 506.8594,574.9688 507.0781,575.1406 C507.2344,575.25 507.4219,575.2813 507.8438,575.2813 L508.0938,575.2813 L508.0938,581.7969 L507.8438,581.7969 C507.4375,581.7969 507.2813,581.8125 507.125,581.9219 C506.875,582.0938 506.7188,582.3594 506.7188,582.6563 C506.7188,582.9219 506.8594,583.1719 507.0781,583.3281 C507.2188,583.4531 507.4531,583.5 507.8438,583.5 L515.8438,583.5 L515.8438,580.9219 C515.8438,580.4844 515.8125,580.3438 515.7344,580.1875 C515.5625,579.9375 515.2813,579.7813 515,579.7813 C514.7344,579.7813 514.4688,579.8906 514.2969,580.1406 C514.1875,580.2969 514.1563,580.4375 514.1563,580.9219 L514.1563,581.7969 L509.7969,581.7969 L509.7969,579.375 Z " fill="#000000"/><text fill="#000000" font-family="sans-serif" font-size="12" lengthAdjust="spacing" textLength="110" x="525" y="582.6543">DevicePowerState</text><line style="stroke:#A80036;stroke-width:1.5;" x1="497" x2="637" y1="594.5" y2="594.5"/><text fill="#000000" font-family="sans-serif" font-size="11" lengthAdjust="spacing" textLength="53" x="502" y="608.7104">PowerOn,</text><text fill="#000000" font-family="sans-serif" font-size="11" lengthAdjust="spacing" textLength="54" x="502" y="621.5151">PowerOff,</text><text fill="#000000" font-family="sans-serif" font-size="11" lengthAdjust="spacing" textLength="70" x="502" y="634.3198">PoweringOn,</text><text fill="#000000" font-family="sans-serif" font-size="11" lengthAdjust="spacing" textLength="71" x="502" y="647.1245">PoweringOff,</text><line style="stroke:#A80036;stroke-width:1.5;" x1="497" x2="637" y1="653.7188" y2="653.7188"/><!--MD5=[64541730fc3da7ffd6ef9e81951c527b]
class BootType--><rect codeLine="13" fill="#FEFECE" filter="url(#fzl2r2bah9isz)" height="73.6094" id="BootType" style="stroke:#A80036;stroke-width:1.5;" width="95" x="673.5" y="575"/><ellipse cx="690.75" cy="591" fill="#EB937F" rx="11" ry="11" style="stroke:#A80036;stroke-width:1.0;"/><path d="M689.5469,591.875 L691,591.875 L691,591.9844 C691,592.3906 691.0313,592.5469 691.1094,592.7031 C691.2656,592.9531 691.5469,593.1094 691.8438,593.1094 C692.0938,593.1094 692.3594,592.9688 692.5156,592.75 C692.6406,592.5938 692.6719,592.4375 692.6719,591.9844 L692.6719,590.0625 C692.6719,589.9063 692.6719,589.8594 692.6563,589.7031 C692.5938,589.2344 692.2813,588.9219 691.8281,588.9219 C691.5781,588.9219 691.3125,589.0625 691.1406,589.2813 C691.0313,589.4531 691,589.6094 691,590.0625 L691,590.1875 L689.5469,590.1875 L689.5469,587.7813 L693.5313,587.7813 L693.5313,588.6406 C693.5313,589.0469 693.5625,589.2188 693.6406,589.375 C693.8125,589.625 694.0938,589.7813 694.375,589.7813 C694.6406,589.7813 694.9063,589.6406 695.0781,589.4219 C695.1875,589.25 695.2188,589.1094 695.2188,588.6406 L695.2188,586.0938 L687.5938,586.0938 C687.1563,586.0938 687.0313,586.1094 686.875,586.2031 C686.625,586.3594 686.4688,586.6563 686.4688,586.9375 C686.4688,587.2188 686.6094,587.4688 686.8281,587.6406 C686.9844,587.75 687.1719,587.7813 687.5938,587.7813 L687.8438,587.7813 L687.8438,594.2969 L687.5938,594.2969 C687.1875,594.2969 687.0313,594.3125 686.875,594.4219 C686.625,594.5938 686.4688,594.8594 686.4688,595.1563 C686.4688,595.4219 686.6094,595.6719 686.8281,595.8281 C686.9688,595.9531 687.2031,596 687.5938,596 L695.5938,596 L695.5938,593.4219 C695.5938,592.9844 695.5625,592.8438 695.4844,592.6875 C695.3125,592.4375 695.0313,592.2813 694.75,592.2813 C694.4844,592.2813 694.2188,592.3906 694.0469,592.6406 C693.9375,592.7969 693.9063,592.9375 693.9063,593.4219 L693.9063,594.2969 L689.5469,594.2969 L689.5469,591.875 Z " fill="#000000"/><text fill="#000000" font-family="sans-serif" font-size="12" lengthAdjust="spacing" textLength="58" x="705.25" y="595.1543">BootType</text><line style="stroke:#A80036;stroke-width:1.5;" x1="674.5" x2="767.5" y1="607" y2="607"/><text fill="#000000" font-family="sans-serif" font-size="11" lengthAdjust="spacing" textLength="83" x="679.5" y="621.2104">NETWORK = 0,</text><text fill="#000000" font-family="sans-serif" font-size="11" lengthAdjust="spacing" textLength="58" x="679.5" y="634.0151">STORAGE,</text><line style="stroke:#A80036;stroke-width:1.5;" x1="674.5" x2="767.5" y1="640.6094" y2="640.6094"/><!--MD5=[0a2c34b35557c2bb17d91b39e9e0d2e7]
class Bmc--><rect codeLine="17" fill="#FEFECE" filter="url(#fzl2r2bah9isz)" height="60.8047" id="Bmc" style="stroke:#A80036;stroke-width:1.5;" width="112" x="804" y="581.5"/><ellipse cx="843.3" cy="597.5" fill="#ADD1B2" rx="11" ry="11" style="stroke:#A80036;stroke-width:1.0;"/><path d="M845.6438,593.1719 C844.7063,592.7344 844.1125,592.5938 843.2375,592.5938 C840.6125,592.5938 838.6125,594.6719 838.6125,597.3906 L838.6125,598.5156 C838.6125,601.0938 840.7219,602.9844 843.6125,602.9844 C844.8313,602.9844 845.9875,602.6875 846.7375,602.1406 C847.3156,601.7344 847.6438,601.2813 847.6438,600.8906 C847.6438,600.4375 847.2531,600.0469 846.7844,600.0469 C846.5656,600.0469 846.3625,600.125 846.175,600.3125 C845.7219,600.7969 845.7219,600.7969 845.5344,600.8906 C845.1125,601.1563 844.425,601.2813 843.6594,601.2813 C841.6125,601.2813 840.3156,600.1875 840.3156,598.4844 L840.3156,597.3906 C840.3156,595.6094 841.5656,594.2969 843.3,594.2969 C843.8781,594.2969 844.4875,594.4531 844.9563,594.7031 C845.4406,594.9844 845.6125,595.2031 845.7063,595.6094 C845.7688,596.0156 845.8,596.1406 845.9406,596.2656 C846.0813,596.4063 846.3156,596.5156 846.5344,596.5156 C846.8,596.5156 847.0656,596.375 847.2375,596.1563 C847.3469,596 847.3781,595.8125 847.3781,595.3906 L847.3781,593.9688 C847.3781,593.5313 847.3625,593.4063 847.2688,593.25 C847.1125,592.9844 846.8313,592.8438 846.5344,592.8438 C846.2375,592.8438 846.0344,592.9375 845.8156,593.25 L845.6438,593.1719 Z " fill="#000000"/><text fill="#000000" font-family="sans-serif" font-size="12" lengthAdjust="spacing" textLength="26" x="862.7" y="601.6543">Bmc</text><line style="stroke:#A80036;stroke-width:1.5;" x1="805" x2="915" y1="613.5" y2="613.5"/><text fill="#000000" font-family="sans-serif" font-size="11" lengthAdjust="spacing" textLength="100" x="810" y="627.7104">Not implemented</text><line style="stroke:#A80036;stroke-width:1.5;" x1="805" x2="915" y1="634.3047" y2="634.3047"/><!--MD5=[50a361edd6b3acea99c9ce5b2aad8a46]
class PowerSwitch--><rect codeLine="20" fill="#FEFECE" filter="url(#fzl2r2bah9isz)" height="60.8047" id="PowerSwitch" style="stroke:#A80036;stroke-width:1.5;" width="112" x="951" y="581.5"/><ellipse cx="967.8" cy="597.5" fill="#ADD1B2" rx="11" ry="11" style="stroke:#A80036;stroke-width:1.0;"/><path d="M970.1438,593.1719 C969.2063,592.7344 968.6125,592.5938 967.7375,592.5938 C965.1125,592.5938 963.1125,594.6719 963.1125,597.3906 L963.1125,598.5156 C963.1125,601.0938 965.2219,602.9844 968.1125,602.9844 C969.3313,602.9844 970.4875,602.6875 971.2375,602.1406 C971.8156,601.7344 972.1438,601.2813 972.1438,600.8906 C972.1438,600.4375 971.7531,600.0469 971.2844,600.0469 C971.0656,600.0469 970.8625,600.125 970.675,600.3125 C970.2219,600.7969 970.2219,600.7969 970.0344,600.8906 C969.6125,601.1563 968.925,601.2813 968.1594,601.2813 C966.1125,601.2813 964.8156,600.1875 964.8156,598.4844 L964.8156,597.3906 C964.8156,595.6094 966.0656,594.2969 967.8,594.2969 C968.3781,594.2969 968.9875,594.4531 969.4563,594.7031 C969.9406,594.9844 970.1125,595.2031 970.2063,595.6094 C970.2688,596.0156 970.3,596.1406 970.4406,596.2656 C970.5813,596.4063 970.8156,596.5156 971.0344,596.5156 C971.3,596.5156 971.5656,596.375 971.7375,596.1563 C971.8469,596 971.8781,595.8125 971.8781,595.3906 L971.8781,593.9688 C971.8781,593.5313 971.8625,593.4063 971.7688,593.25 C971.6125,592.9844 971.3313,592.8438 971.0344,592.8438 C970.7375,592.8438 970.5344,592.9375 970.3156,593.25 L970.1438,593.1719 Z " fill="#000000"/><text fill="#000000" font-family="sans-serif" font-size="12" lengthAdjust="spacing" textLength="76" x="982.2" y="601.6543">PowerSwitch</text><line style="stroke:#A80036;stroke-width:1.5;" x1="952" x2="1062" y1="613.5" y2="613.5"/><text fill="#000000" font-family="sans-serif" font-size="11" lengthAdjust="spacing" textLength="100" x="957" y="627.7104">Not implemented</text><line style="stroke:#A80036;stroke-width:1.5;" x1="952" x2="1062" y1="634.3047" y2="634.3047"/><!--MD5=[fc539fa3f3b7db9b31467e896d367b3b]
class Device--><rect codeLine="23" fill="#FEFECE" filter="url(#fzl2r2bah9isz)" height="281.6563" id="Device" style="stroke:#A80036;stroke-width:1.5;" width="314" x="487" y="210"/><ellipse cx="618.75" cy="226" fill="#ADD1B2" rx="11" ry="11" style="stroke:#A80036;stroke-width:1.0;"/><path d="M621.0938,221.6719 C620.1563,221.2344 619.5625,221.0938 618.6875,221.0938 C616.0625,221.0938 614.0625,223.1719 614.0625,225.8906 L614.0625,227.0156 C614.0625,229.5938 616.1719,231.4844 619.0625,231.4844 C620.2813,231.4844 621.4375,231.1875 622.1875,230.6406 C622.7656,230.2344 623.0938,229.7813 623.0938,229.3906 C623.0938,228.9375 622.7031,228.5469 622.2344,228.5469 C622.0156,228.5469 621.8125,228.625 621.625,228.8125 C621.1719,229.2969 621.1719,229.2969 620.9844,229.3906 C620.5625,229.6563 619.875,229.7813 619.1094,229.7813 C617.0625,229.7813 615.7656,228.6875 615.7656,226.9844 L615.7656,225.8906 C615.7656,224.1094 617.0156,222.7969 618.75,222.7969 C619.3281,222.7969 619.9375,222.9531 620.4063,223.2031 C620.8906,223.4844 621.0625,223.7031 621.1563,224.1094 C621.2188,224.5156 621.25,224.6406 621.3906,224.7656 C621.5313,224.9063 621.7656,225.0156 621.9844,225.0156 C622.25,225.0156 622.5156,224.875 622.6875,224.6563 C622.7969,224.5 622.8281,224.3125 622.8281,223.8906 L622.8281,222.4688 C622.8281,222.0313 622.8125,221.9063 622.7188,221.75 C622.5625,221.4844 622.2813,221.3438 621.9844,221.3438 C621.6875,221.3438 621.4844,221.4375 621.2656,221.75 L621.0938,221.6719 Z " fill="#000000"/><text fill="#000000" font-family="sans-serif" font-size="12" lengthAdjust="spacing" textLength="42" x="639.25" y="230.1543">Device</text><line style="stroke:#A80036;stroke-width:1.5;" x1="488" x2="800" y1="242" y2="242"/><ellipse cx="498" cy="253" rx="3" ry="3" style="stroke:#038048;stroke-width:1.0;fill:none;"/><text fill="#000000" font-family="sans-serif" font-size="11" lengthAdjust="spacing" textLength="158" x="507" y="256.2104">Disabled : bool «get» «set»</text><line style="stroke:#A80036;stroke-width:1.0;stroke-dasharray:1.0,2.0;" x1="488" x2="800" y1="262.8047" y2="262.8047"/><ellipse cx="498" cy="273.8047" rx="3" ry="3" style="stroke:#038048;stroke-width:1.0;fill:none;"/><text fill="#000000" font-family="sans-serif" font-size="11" lengthAdjust="spacing" textLength="149" x="507" y="277.0151">Name : string «get» «set»</text><line style="stroke:#A80036;stroke-width:1.0;stroke-dasharray:1.0,2.0;" x1="488" x2="800" y1="283.6094" y2="283.6094"/><ellipse cx="498" cy="294.6094" rx="3" ry="3" style="stroke:#038048;stroke-width:1.0;fill:none;"/><text fill="#000000" font-family="sans-serif" font-size="11" lengthAdjust="spacing" textLength="148" x="507" y="297.8198">Serial : string «get» «set»</text><line style="stroke:#A80036;stroke-width:1.0;stroke-dasharray:1.0,2.0;" x1="488" x2="800" y1="304.4141" y2="304.4141"/><ellipse cx="498" cy="315.4141" rx="3" ry="3" style="stroke:#038048;stroke-width:1.0;fill:none;"/><text fill="#000000" font-family="sans-serif" font-size="11" lengthAdjust="spacing" textLength="281" x="507" y="318.6245">MachineState : DeviceMachineState «get» «set»</text><line style="stroke:#A80036;stroke-width:1.0;stroke-dasharray:1.0,2.0;" x1="488" x2="800" y1="325.2188" y2="325.2188"/><ellipse cx="498" cy="336.2188" rx="3" ry="3" style="stroke:#038048;stroke-width:1.0;fill:none;"/><text fill="#000000" font-family="sans-serif" font-size="11" lengthAdjust="spacing" textLength="271" x="507" y="339.4292">MachineStateUpdated : DateTime  «get» «set»</text><line style="stroke:#A80036;stroke-width:1.0;stroke-dasharray:1.0,2.0;" x1="488" x2="800" y1="346.0234" y2="346.0234"/><ellipse cx="498" cy="357.0234" rx="3" ry="3" style="stroke:#038048;stroke-width:1.0;fill:none;"/><text fill="#000000" font-family="sans-serif" font-size="11" lengthAdjust="spacing" textLength="255" x="507" y="360.2339">PowerState : DevicePowerState «get» «set»</text><line style="stroke:#A80036;stroke-width:1.0;stroke-dasharray:1.0,2.0;" x1="488" x2="800" y1="366.8281" y2="366.8281"/><ellipse cx="498" cy="377.8281" rx="3" ry="3" style="stroke:#038048;stroke-width:1.0;fill:none;"/><text fill="#000000" font-family="sans-serif" font-size="11" lengthAdjust="spacing" textLength="258" x="507" y="381.0386">PowerStateUpdated : DateTime  «get» «set»</text><line style="stroke:#A80036;stroke-width:1.0;stroke-dasharray:1.0,2.0;" x1="488" x2="800" y1="387.6328" y2="387.6328"/><ellipse cx="498" cy="398.6328" rx="3" ry="3" style="stroke:#038048;stroke-width:1.0;fill:none;"/><text fill="#000000" font-family="sans-serif" font-size="11" lengthAdjust="spacing" textLength="192" x="507" y="401.8433">NextBoot : BootType «get» «set»</text><line style="stroke:#A80036;stroke-width:1.0;stroke-dasharray:1.0,2.0;" x1="488" x2="800" y1="408.4375" y2="408.4375"/><ellipse cx="498" cy="419.4375" rx="3" ry="3" style="stroke:#038048;stroke-width:1.0;fill:none;"/><text fill="#000000" font-family="sans-serif" font-size="11" lengthAdjust="spacing" textLength="245" x="507" y="422.6479">«virtual» Console : DbConsole «get» «set»</text><line style="stroke:#A80036;stroke-width:1.0;stroke-dasharray:1.0,2.0;" x1="488" x2="800" y1="429.2422" y2="429.2422"/><ellipse cx="498" cy="440.2422" rx="3" ry="3" style="stroke:#038048;stroke-width:1.0;fill:none;"/><text fill="#000000" font-family="sans-serif" font-size="11" lengthAdjust="spacing" textLength="288" x="507" y="443.4526">«virtual» Template : DeviceTemplate «get» «set»</text><line style="stroke:#A80036;stroke-width:1.0;stroke-dasharray:1.0,2.0;" x1="488" x2="800" y1="450.0469" y2="450.0469"/><ellipse cx="498" cy="461.0469" rx="3" ry="3" style="stroke:#038048;stroke-width:1.0;fill:none;"/><text fill="#000000" font-family="sans-serif" font-size="11" lengthAdjust="spacing" textLength="187" x="507" y="464.2573">«virtual» BMC : Bmc «get» «set»</text><line style="stroke:#A80036;stroke-width:1.0;stroke-dasharray:1.0,2.0;" x1="488" x2="800" y1="470.8516" y2="470.8516"/><ellipse cx="498" cy="481.8516" rx="3" ry="3" style="stroke:#038048;stroke-width:1.0;fill:none;"/><text fill="#000000" font-family="sans-serif" font-size="11" lengthAdjust="spacing" textLength="245" x="507" y="485.062">«virtual» Switch : PowerSwitch «get» «set»</text><!--MD5=[01516973ad7471874169af5526e0376a]
class DeviceTemplate--><rect codeLine="54" fill="#FEFECE" filter="url(#fzl2r2bah9isz)" height="128.0234" id="DeviceTemplate" style="stroke:#A80036;stroke-width:1.5;" width="215" x="56.5" y="548"/><ellipse cx="110.75" cy="564" fill="#ADD1B2" rx="11" ry="11" style="stroke:#A80036;stroke-width:1.0;"/><path d="M113.0938,559.6719 C112.1563,559.2344 111.5625,559.0938 110.6875,559.0938 C108.0625,559.0938 106.0625,561.1719 106.0625,563.8906 L106.0625,565.0156 C106.0625,567.5938 108.1719,569.4844 111.0625,569.4844 C112.2813,569.4844 113.4375,569.1875 114.1875,568.6406 C114.7656,568.2344 115.0938,567.7813 115.0938,567.3906 C115.0938,566.9375 114.7031,566.5469 114.2344,566.5469 C114.0156,566.5469 113.8125,566.625 113.625,566.8125 C113.1719,567.2969 113.1719,567.2969 112.9844,567.3906 C112.5625,567.6563 111.875,567.7813 111.1094,567.7813 C109.0625,567.7813 107.7656,566.6875 107.7656,564.9844 L107.7656,563.8906 C107.7656,562.1094 109.0156,560.7969 110.75,560.7969 C111.3281,560.7969 111.9375,560.9531 112.4063,561.2031 C112.8906,561.4844 113.0625,561.7031 113.1563,562.1094 C113.2188,562.5156 113.25,562.6406 113.3906,562.7656 C113.5313,562.9063 113.7656,563.0156 113.9844,563.0156 C114.25,563.0156 114.5156,562.875 114.6875,562.6563 C114.7969,562.5 114.8281,562.3125 114.8281,561.8906 L114.8281,560.4688 C114.8281,560.0313 114.8125,559.9063 114.7188,559.75 C114.5625,559.4844 114.2813,559.3438 113.9844,559.3438 C113.6875,559.3438 113.4844,559.4375 113.2656,559.75 L113.0938,559.6719 Z " fill="#000000"/><text fill="#000000" font-family="sans-serif" font-size="12" lengthAdjust="spacing" textLength="98" x="131.25" y="568.1543">DeviceTemplate</text><line style="stroke:#A80036;stroke-width:1.5;" x1="57.5" x2="270.5" y1="580" y2="580"/><ellipse cx="67.5" cy="591" rx="3" ry="3" style="stroke:#038048;stroke-width:1.0;fill:none;"/><text fill="#000000" font-family="sans-serif" font-size="11" lengthAdjust="spacing" textLength="149" x="76.5" y="594.2104">Name : string «get» «set»</text><text fill="#000000" font-family="sans-serif" font-size="11" lengthAdjust="spacing" textLength="152" x="76.5" y="607.0151">Unique name for template</text><line style="stroke:#A80036;stroke-width:1.0;stroke-dasharray:1.0,2.0;" x1="57.5" x2="270.5" y1="613.6094" y2="613.6094"/><ellipse cx="67.5" cy="624.6094" rx="3" ry="3" style="stroke:#038048;stroke-width:1.0;fill:none;"/><text fill="#000000" font-family="sans-serif" font-size="11" lengthAdjust="spacing" textLength="149" x="76.5" y="627.8198">Model : string «get» «set»</text><line style="stroke:#A80036;stroke-width:1.0;stroke-dasharray:1.0,2.0;" x1="57.5" x2="270.5" y1="634.4141" y2="634.4141"/><ellipse cx="67.5" cy="645.4141" rx="3" ry="3" style="stroke:#038048;stroke-width:1.0;fill:none;"/><text fill="#000000" font-family="sans-serif" font-size="11" lengthAdjust="spacing" textLength="189" x="76.5" y="648.6245">Manufacturer : string «get» «set»</text><line style="stroke:#A80036;stroke-width:1.0;stroke-dasharray:1.0,2.0;" x1="57.5" x2="270.5" y1="655.2188" y2="655.2188"/><ellipse cx="67.5" cy="666.2188" rx="3" ry="3" style="stroke:#038048;stroke-width:1.0;fill:none;"/><text fill="#000000" font-family="sans-serif" font-size="11" lengthAdjust="spacing" textLength="140" x="76.5" y="669.4292">Arch : string «get» «set»</text><!--MD5=[b49eaf32247adee56c8aac50ba6304ca]
class DeviceEthPort--><rect codeLine="64" fill="#FEFECE" filter="url(#fzl2r2bah9isz)" height="136.0234" id="DeviceEthPort" style="stroke:#A80036;stroke-width:1.5;" width="283" x="501.5" y="7"/><ellipse cx="597.25" cy="23" fill="#ADD1B2" rx="11" ry="11" style="stroke:#A80036;stroke-width:1.0;"/><path d="M599.5938,18.6719 C598.6563,18.2344 598.0625,18.0938 597.1875,18.0938 C594.5625,18.0938 592.5625,20.1719 592.5625,22.8906 L592.5625,24.0156 C592.5625,26.5938 594.6719,28.4844 597.5625,28.4844 C598.7813,28.4844 599.9375,28.1875 600.6875,27.6406 C601.2656,27.2344 601.5938,26.7813 601.5938,26.3906 C601.5938,25.9375 601.2031,25.5469 600.7344,25.5469 C600.5156,25.5469 600.3125,25.625 600.125,25.8125 C599.6719,26.2969 599.6719,26.2969 599.4844,26.3906 C599.0625,26.6563 598.375,26.7813 597.6094,26.7813 C595.5625,26.7813 594.2656,25.6875 594.2656,23.9844 L594.2656,22.8906 C594.2656,21.1094 595.5156,19.7969 597.25,19.7969 C597.8281,19.7969 598.4375,19.9531 598.9063,20.2031 C599.3906,20.4844 599.5625,20.7031 599.6563,21.1094 C599.7188,21.5156 599.75,21.6406 599.8906,21.7656 C600.0313,21.9063 600.2656,22.0156 600.4844,22.0156 C600.75,22.0156 601.0156,21.875 601.1875,21.6563 C601.2969,21.5 601.3281,21.3125 601.3281,20.8906 L601.3281,19.4688 C601.3281,19.0313 601.3125,18.9063 601.2188,18.75 C601.0625,18.4844 600.7813,18.3438 600.4844,18.3438 C600.1875,18.3438 599.9844,18.4375 599.7656,18.75 L599.5938,18.6719 Z " fill="#000000"/><text fill="#000000" font-family="sans-serif" font-size="12" lengthAdjust="spacing" textLength="83" x="617.75" y="27.1543">DeviceEthPort</text><line style="stroke:#A80036;stroke-width:1.5;" x1="502.5" x2="783.5" y1="39" y2="39"/><ellipse cx="512.5" cy="50" rx="3" ry="3" style="stroke:#038048;stroke-width:1.0;fill:none;"/><text fill="#000000" font-family="sans-serif" font-size="11" lengthAdjust="spacing" textLength="158" x="521.5" y="53.2104">Disabled : bool «get» «set»</text><line style="stroke:#A80036;stroke-width:1.0;stroke-dasharray:1.0,2.0;" x1="502.5" x2="783.5" y1="59.8047" y2="59.8047"/><ellipse cx="512.5" cy="70.8047" rx="3" ry="3" style="stroke:#038048;stroke-width:1.0;fill:none;"/><text fill="#000000" font-family="sans-serif" font-size="11" lengthAdjust="spacing" textLength="204" x="521.5" y="74.0151">ManagementPort : bool «get» «set»</text><line style="stroke:#A80036;stroke-width:1.0;stroke-dasharray:1.0,2.0;" x1="502.5" x2="783.5" y1="80.6094" y2="80.6094"/><ellipse cx="512.5" cy="91.6094" rx="3" ry="3" style="stroke:#038048;stroke-width:1.0;fill:none;"/><text fill="#000000" font-family="sans-serif" font-size="11" lengthAdjust="spacing" textLength="183" x="521.5" y="94.8198">MacAddress : string «get» «set»</text><line style="stroke:#A80036;stroke-width:1.0;stroke-dasharray:1.0,2.0;" x1="502.5" x2="783.5" y1="101.4141" y2="101.4141"/><ellipse cx="512.5" cy="112.4141" rx="3" ry="3" style="stroke:#038048;stroke-width:1.0;fill:none;"/><text fill="#000000" font-family="sans-serif" font-size="11" lengthAdjust="spacing" textLength="257" x="521.5" y="115.6245">«virtual» Connected : SwitchPort «get» «set»</text><line style="stroke:#A80036;stroke-width:1.0;stroke-dasharray:1.0,2.0;" x1="502.5" x2="783.5" y1="122.2188" y2="122.2188"/><ellipse cx="512.5" cy="133.2188" rx="3" ry="3" style="stroke:#038048;stroke-width:1.0;fill:none;"/><text fill="#000000" font-family="sans-serif" font-size="11" lengthAdjust="spacing" textLength="219" x="521.5" y="136.4292">«virtual» Device : Device «get» «set»</text><!--MD5=[1355e8f537fcf4606c5f0fae24fb5b90]
class BootStage--><rect codeLine="76" fill="#FEFECE" filter="url(#fzl2r2bah9isz)" height="94.4141" id="BootStage" style="stroke:#A80036;stroke-width:1.5;" width="314" x="7" y="300.5"/><ellipse cx="128.25" cy="316.5" fill="#ADD1B2" rx="11" ry="11" style="stroke:#A80036;stroke-width:1.0;"/><path d="M130.5938,312.1719 C129.6563,311.7344 129.0625,311.5938 128.1875,311.5938 C125.5625,311.5938 123.5625,313.6719 123.5625,316.3906 L123.5625,317.5156 C123.5625,320.0938 125.6719,321.9844 128.5625,321.9844 C129.7813,321.9844 130.9375,321.6875 131.6875,321.1406 C132.2656,320.7344 132.5938,320.2813 132.5938,319.8906 C132.5938,319.4375 132.2031,319.0469 131.7344,319.0469 C131.5156,319.0469 131.3125,319.125 131.125,319.3125 C130.6719,319.7969 130.6719,319.7969 130.4844,319.8906 C130.0625,320.1563 129.375,320.2813 128.6094,320.2813 C126.5625,320.2813 125.2656,319.1875 125.2656,317.4844 L125.2656,316.3906 C125.2656,314.6094 126.5156,313.2969 128.25,313.2969 C128.8281,313.2969 129.4375,313.4531 129.9063,313.7031 C130.3906,313.9844 130.5625,314.2031 130.6563,314.6094 C130.7188,315.0156 130.75,315.1406 130.8906,315.2656 C131.0313,315.4063 131.2656,315.5156 131.4844,315.5156 C131.75,315.5156 132.0156,315.375 132.1875,315.1563 C132.2969,315 132.3281,314.8125 132.3281,314.3906 L132.3281,312.9688 C132.3281,312.5313 132.3125,312.4063 132.2188,312.25 C132.0625,311.9844 131.7813,311.8438 131.4844,311.8438 C131.1875,311.8438 130.9844,311.9375 130.7656,312.25 L130.5938,312.1719 Z " fill="#000000"/><text fill="#000000" font-family="sans-serif" font-size="12" lengthAdjust="spacing" textLength="63" x="148.75" y="320.6543">BootStage</text><line style="stroke:#A80036;stroke-width:1.5;" x1="8" x2="320" y1="332.5" y2="332.5"/><ellipse cx="18" cy="343.5" rx="3" ry="3" style="stroke:#038048;stroke-width:1.0;fill:none;"/><text fill="#000000" font-family="sans-serif" font-size="11" lengthAdjust="spacing" textLength="153" x="27" y="346.7104">Name : string  «get» «set»</text><line style="stroke:#A80036;stroke-width:1.0;stroke-dasharray:1.0,2.0;" x1="8" x2="320" y1="353.3047" y2="353.3047"/><ellipse cx="18" cy="364.3047" rx="3" ry="3" style="stroke:#038048;stroke-width:1.0;fill:none;"/><text fill="#000000" font-family="sans-serif" font-size="11" lengthAdjust="spacing" textLength="134" x="27" y="367.5151">Index : int  «get» «set»</text><line style="stroke:#A80036;stroke-width:1.0;stroke-dasharray:1.0,2.0;" x1="8" x2="320" y1="374.1094" y2="374.1094"/><ellipse cx="18" cy="385.1094" rx="3" ry="3" style="stroke:#038048;stroke-width:1.0;fill:none;"/><text fill="#000000" font-family="sans-serif" font-size="11" lengthAdjust="spacing" textLength="288" x="27" y="388.3198">«virtual» Template : DeviceTemplate «get» «set»</text><!--MD5=[d60d985822e1040b3c23a99759f02413]
class BootStageSharedFile--><rect codeLine="84" fill="#FEFECE" filter="url(#fzl2r2bah9isz)" height="136.0234" id="BootStageSharedFile" style="stroke:#A80036;stroke-width:1.5;" width="257" x="34.5" y="7"/><ellipse cx="95.25" cy="23" fill="#ADD1B2" rx="11" ry="11" style="stroke:#A80036;stroke-width:1.0;"/><path d="M97.5938,18.6719 C96.6563,18.2344 96.0625,18.0938 95.1875,18.0938 C92.5625,18.0938 90.5625,20.1719 90.5625,22.8906 L90.5625,24.0156 C90.5625,26.5938 92.6719,28.4844 95.5625,28.4844 C96.7813,28.4844 97.9375,28.1875 98.6875,27.6406 C99.2656,27.2344 99.5938,26.7813 99.5938,26.3906 C99.5938,25.9375 99.2031,25.5469 98.7344,25.5469 C98.5156,25.5469 98.3125,25.625 98.125,25.8125 C97.6719,26.2969 97.6719,26.2969 97.4844,26.3906 C97.0625,26.6563 96.375,26.7813 95.6094,26.7813 C93.5625,26.7813 92.2656,25.6875 92.2656,23.9844 L92.2656,22.8906 C92.2656,21.1094 93.5156,19.7969 95.25,19.7969 C95.8281,19.7969 96.4375,19.9531 96.9063,20.2031 C97.3906,20.4844 97.5625,20.7031 97.6563,21.1094 C97.7188,21.5156 97.75,21.6406 97.8906,21.7656 C98.0313,21.9063 98.2656,22.0156 98.4844,22.0156 C98.75,22.0156 99.0156,21.875 99.1875,21.6563 C99.2969,21.5 99.3281,21.3125 99.3281,20.8906 L99.3281,19.4688 C99.3281,19.0313 99.3125,18.9063 99.2188,18.75 C99.0625,18.4844 98.7813,18.3438 98.4844,18.3438 C98.1875,18.3438 97.9844,18.4375 97.7656,18.75 L97.5938,18.6719 Z " fill="#000000"/><text fill="#000000" font-family="sans-serif" font-size="12" lengthAdjust="spacing" textLength="127" x="115.75" y="27.1543">BootStageSharedFile</text><line style="stroke:#A80036;stroke-width:1.5;" x1="35.5" x2="290.5" y1="39" y2="39"/><ellipse cx="45.5" cy="50" rx="3" ry="3" style="stroke:#038048;stroke-width:1.0;fill:none;"/><text fill="#000000" font-family="sans-serif" font-size="11" lengthAdjust="spacing" textLength="142" x="54.5" y="53.2104">FileId : guid  «get» «set»</text><line style="stroke:#A80036;stroke-width:1.0;stroke-dasharray:1.0,2.0;" x1="35.5" x2="290.5" y1="59.8047" y2="59.8047"/><ellipse cx="45.5" cy="70.8047" rx="3" ry="3" style="stroke:#038048;stroke-width:1.0;fill:none;"/><text fill="#000000" font-family="sans-serif" font-size="11" lengthAdjust="spacing" textLength="179" x="54.5" y="74.0151">VirtualPath : string  «get» «set»</text><line style="stroke:#A80036;stroke-width:1.0;stroke-dasharray:1.0,2.0;" x1="35.5" x2="290.5" y1="80.6094" y2="80.6094"/><ellipse cx="45.5" cy="91.6094" rx="3" ry="3" style="stroke:#038048;stroke-width:1.0;fill:none;"/><text fill="#000000" font-family="sans-serif" font-size="11" lengthAdjust="spacing" textLength="190" x="54.5" y="94.8198">ShareViaTFTP : bool  «get» «set»</text><line style="stroke:#A80036;stroke-width:1.0;stroke-dasharray:1.0,2.0;" x1="35.5" x2="290.5" y1="101.4141" y2="101.4141"/><ellipse cx="45.5" cy="112.4141" rx="3" ry="3" style="stroke:#038048;stroke-width:1.0;fill:none;"/><text fill="#000000" font-family="sans-serif" font-size="11" lengthAdjust="spacing" textLength="192" x="54.5" y="115.6245">ShareViaHTTP : bool  «get» «set»</text><line style="stroke:#A80036;stroke-width:1.0;stroke-dasharray:1.0,2.0;" x1="35.5" x2="290.5" y1="122.2188" y2="122.2188"/><ellipse cx="45.5" cy="133.2188" rx="3" ry="3" style="stroke:#038048;stroke-width:1.0;fill:none;"/><text fill="#000000" font-family="sans-serif" font-size="11" lengthAdjust="spacing" textLength="231" x="54.5" y="136.4292">«virtual» Stage : BootStage «get» «set»</text><!--MD5=[e224596663baccbe98adda5fd4b56e29]
link Device to PowerSwitch--><path codeLine="48" d="M802,474 C878.623,474 948.32,540.98 983.314,581.273 " fill="none" id="Device-PowerSwitch" style="stroke:#A80036;stroke-width:1.0;"/><!--MD5=[fa096a767e8ffa206601c3605e7d6fdb]
link Device to Bmc--><path codeLine="49" d="M802,454 C855.756,454 862.107,535.99 861.495,581.4695 " fill="none" id="Device-Bmc" style="stroke:#A80036;stroke-width:1.0;"/><!--MD5=[2469f937a0f615fc6a41c50668aa866e]
link Device to DevicePowerState--><path codeLine="50" d="M486,354 C399.571,354 480.077,487.851 531.584,562.358 " fill="none" id="Device-DevicePowerState" style="stroke:#A80036;stroke-width:1.0;"/><!--MD5=[384c76f9fa54ec2dfa65b326c51df1b2]
link Device to DeviceMachineState--><path codeLine="51" d="M486,314 C382.278,314 376.387,478.031 380.203,562.289 " fill="none" id="Device-DeviceMachineState" style="stroke:#A80036;stroke-width:1.0;"/><!--MD5=[3b161a33e11d21b5f96e31f082a1964d]
link Device to DeviceTemplate--><path codeLine="52" d="M486,434 C437.279,434 332.059,497.017 255.11,547.849 " fill="none" id="Device-DeviceTemplate" style="stroke:#A80036;stroke-width:1.0;"/><!--MD5=[6e42d6baffad43330b44f6d30fd2e769]
link Device to BootType--><path codeLine="53" d="M802,394 C878.203,394 797.206,512.904 749.984,574.679 " fill="none" id="Device-BootType" style="stroke:#A80036;stroke-width:1.0;"/><!--MD5=[595baeee2e6574a5af4dbc642f8089d8]
link DeviceEthPort to Device--><path codeLine="75" d="M786,132.5 C830.961,132.5 818.342,165.732 786.579,205.975 " fill="none" id="DeviceEthPort-Device" style="stroke:#A80036;stroke-width:1.0;"/><!--MD5=[5f7de1f8ba1b933070f4f1544e24b008]
link BootStage to DeviceTemplate--><path codeLine="83" d="M322,384 C402.187,384 310.518,480.6 237.087,547.768 " fill="none" id="BootStage-DeviceTemplate" style="stroke:#A80036;stroke-width:1.0;"/><!--MD5=[88f90f003ec5b9378b2b14be23d54c48]
link BootStageSharedFile to BootStage--><path codeLine="95" d="M293,132.5 C369.22,132.5 279.665,233.412 216.249,296.482 " fill="none" id="BootStageSharedFile-BootStage" style="stroke:#A80036;stroke-width:1.0;"/><!--MD5=[c785aa47894463f5070124e88816ebb7]
@startuml
enum DeviceMachineState {
    Free= 0,
    Provisioning,
    Erasing,
    Running,
}
enum DevicePowerState {
    PowerOn,
    PowerOff,
    PoweringOn,
    PoweringOff,
}
enum BootType {
    NETWORK = 0,
    STORAGE,
}
class Bmc {
Not implemented
}
class PowerSwitch {
Not implemented
}
class Device {
    + Disabled : bool <<get>> <<set>>
    ..
    + Name : string <<get>> <<set>>
    ..
    + Serial : string <<get>> <<set>>
    ..
    + MachineState : DeviceMachineState <<get>> <<set>>
    ..
    + MachineStateUpdated : DateTime  <<get>> <<set>>
    ..
    + PowerState : DevicePowerState <<get>> <<set>>
    ..
    + PowerStateUpdated : DateTime  <<get>> <<set>>
    ..
    + NextBoot : BootType <<get>> <<set>>
    ..
    + <<virtual>> Console : DbConsole <<get>> <<set>>
    ..
    + <<virtual>> Template : DeviceTemplate <<get>> <<set>>
    ..
    + <<virtual>> BMC : Bmc <<get>> <<set>>
    ..
    + <<virtual>> Switch : PowerSwitch <<get>> <<set>>
}
Device::Switch - - PowerSwitch
Device::BMC - - Bmc
Device::DevicePowerState - - DevicePowerState
Device::MachineState - - DeviceMachineState
Device::Template - - DeviceTemplate
Device::NextBoot - - BootType
class DeviceTemplate {
    + Name : string <<get>> <<set>>
    Unique name for template
    ..
    + Model : string <<get>> <<set>>
    ..
    + Manufacturer : string <<get>> <<set>>
    ..
    + Arch : string <<get>> <<set>>
}
class DeviceEthPort {
    + Disabled : bool <<get>> <<set>>
    ..
    + ManagementPort : bool <<get>> <<set>>
    ..
    + MacAddress : string <<get>> <<set>>
    ..
    + <<virtual>> Connected : SwitchPort <<get>> <<set>>
    ..
    + <<virtual>> Device : Device <<get>> <<set>>
}
DeviceEthPort::Device - - Device
class BootStage {
    + Name : string  <<get>> <<set>>
    ..
    + Index : int  <<get>> <<set>>
    ..
    + <<virtual>> Template : DeviceTemplate <<get>> <<set>>
}
BootStage::Template - - DeviceTemplate
class BootStageSharedFile {
    + FileId : guid  <<get>> <<set>>
    ..
    + VirtualPath : string  <<get>> <<set>>
    ..
    + ShareViaTFTP : bool  <<get>> <<set>>
    ..
    + ShareViaHTTP : bool  <<get>> <<set>>
    ..
    + <<virtual>> Stage : BootStage <<get>> <<set>>
}
BootStageSharedFile::Stage - - BootStage
@enduml

PlantUML version 1.2021.17beta4(Unknown compile time)
(GPL source distribution)
Java Runtime: Java(TM) SE Runtime Environment
JVM: Java HotSpot(TM) 64-Bit Server VM
Default Encoding: UTF-8
Language: en
Country: US
--></g></svg>